name E:\Dropbox\SEL\BOX\Experiment\240124_SUB1_PJH\c3d\XYZ\UpDown_TrcMot\15_10_trial2_D1_ExtLoadAPP2.mot
datacolumns 37
datarows 6
range 7.01 7.015
endheader

time	    ground_force1_vx	    ground_force1_vy	    ground_force1_vz	    ground_force1_px	    ground_force1_py	    ground_force1_pz	    ground_torque1_x	    ground_torque1_y	    ground_torque1_z	    ground_force2_vx	    ground_force2_vy	    ground_force2_vz	    ground_force2_px	    ground_force2_py	    ground_force2_pz	    ground_torque2_x	    ground_torque2_y	    ground_torque2_z	      hand_force3_vx	      hand_force3_vy	      hand_force3_vz	      hand_force3_px	      hand_force3_py	      hand_force3_pz	      hand_torque3_x	      hand_torque3_y	      hand_torque3_z	      hand_force4_vx	      hand_force4_vy	      hand_force4_vz	      hand_force4_px	      hand_force4_py	      hand_force4_pz	      hand_torque4_x	      hand_torque4_y	      hand_torque4_z	
7.01	         34.54155573	        332.69400675	         21.21402528	          0.21910259	          0.00000000	          0.18139186	          0.00000000	          0.48263307	          0.00000000	        -38.06004259	        405.88251155	         19.08892084	          0.57421205	          0.00000000	          0.18733424	          0.00000000	          0.43838017	          0.00000000	          0.00000000	          0.00000000	          0.00000000	          0.00000000	          0.00000000	          0.00000000	          0.00000000	          0.00000000	          0.00000000	          0.00000000	          0.00000000	          0.00000000	          0.00000000	          0.00000000	          0.00000000	          0.00000000	          0.00000000	          0.00000000	
7.011	         34.52722776	        332.93283592	         21.10856588	          0.21910903	          0.00000000	          0.18135493	          0.00000000	          0.48881351	          0.00000000	        -38.12982123	        406.52639220	         19.04390856	          0.57419600	          0.00000000	          0.18729378	          0.00000000	          0.43161805	          0.00000000	          0.00000000	          0.00000000	          0.00000000	          0.00000000	          0.00000000	          0.00000000	          0.00000000	          0.00000000	          0.00000000	          0.00000000	          0.00000000	          0.00000000	          0.00000000	          0.00000000	          0.00000000	          0.00000000	          0.00000000	          0.00000000	
7.012	         34.51257836	        333.18386507	         20.99886573	          0.21911610	          0.00000000	          0.18132106	          0.00000000	          0.49469460	          0.00000000	        -38.19901534	        407.18602003	         18.99820137	          0.57417928	          0.00000000	          0.18725430	          0.00000000	          0.42514568	          0.00000000	          0.00000000	          0.00000000	          0.00000000	          0.00000000	          0.00000000	          0.00000000	          0.00000000	          0.00000000	          0.00000000	          0.00000000	          0.00000000	          0.00000000	          0.00000000	          0.00000000	          0.00000000	          0.00000000	          0.00000000	          0.00000000	
7.013	         34.49750411	        333.44720890	         20.88507811	          0.21912384	          0.00000000	          0.18129017	          0.00000000	          0.50026833	          0.00000000	        -38.26743499	        407.86121007	         18.95186828	          0.57416186	          0.00000000	          0.18721573	          0.00000000	          0.41897789	          0.00000000	          0.00000000	          0.00000000	          0.00000000	          0.00000000	          0.00000000	          0.00000000	          0.00000000	          0.00000000	          0.00000000	          0.00000000	          0.00000000	          0.00000000	          0.00000000	          0.00000000	          0.00000000	          0.00000000	          0.00000000	          0.00000000	
7.014	         34.48189919	        333.72296007	         20.76736189	          0.21913225	          0.00000000	          0.18126218	          0.00000000	          0.50552698	          0.00000000	        -38.33489385	        408.55174853	         18.90497606	          0.57414371	          0.00000000	          0.18717802	          0.00000000	          0.41312866	          0.00000000	          0.00000000	          0.00000000	          0.00000000	          0.00000000	          0.00000000	          0.00000000	          0.00000000	          0.00000000	          0.00000000	          0.00000000	          0.00000000	          0.00000000	          0.00000000	          0.00000000	          0.00000000	          0.00000000	          0.00000000	          0.00000000	
7.015	         34.46565596	        334.01118883	         20.64588106	          0.21914138	          0.00000000	          0.18123703	          0.00000000	          0.51046323	          0.00000000	        -38.40120994	        409.25739342	         18.85758903	          0.57412483	          0.00000000	          0.18714109	          0.00000000	          0.40761106	          0.00000000	          0.00000000	          0.00000000	          0.00000000	          0.00000000	          0.00000000	          0.00000000	          0.00000000	          0.00000000	          0.00000000	          0.00000000	          0.00000000	          0.00000000	          0.00000000	          0.00000000	          0.00000000	          0.00000000	          0.00000000	          0.00000000	
